<svg id="Capa_1" enable-background="new 0 0 512 512" fill="white" height="512" viewBox="0 0 512 512" width="512" xmlns="http://www.w3.org/2000/svg"><path d="m497 380.2h-5.212v-120.784c0-36.599-29.775-66.374-66.374-66.374h-120.784v-3.288c0-8.284-6.716-15-15-15h-67.26c-8.284 0-15 6.716-15 15v4.055h-62.009v-62.009h7.544c8.284 0 15-6.716 15-15v-67.26c0-8.284-6.716-15-15-15h-137.905c-8.284 0-15 6.716-15 15v67.26c0 8.284 6.716 15 15 15h5.212v120.784c0 36.599 29.775 66.374 66.374 66.374h120.784v8.701c0 8.284 6.716 15 15 15h67.26c8.284 0 15-6.716 15-15v-9.469h62.009v62.01h-7.544c-8.284 0-15 6.716-15 15v67.26c0 8.284 6.716 15 15 15h137.905c8.284 0 15-6.716 15-15v-67.26c0-8.284-6.716-15-15-15zm-467-315.66h107.905v37.26h-107.905zm56.586 224.418c-20.057 0-36.374-16.317-36.374-36.374v-120.784h65.149v77.009c0 8.284 6.716 15 15 15h77.009v65.149zm188.044 23.702h-37.26v-107.906h37.26zm107.009-24.469h-77.009v-65.149h120.784c20.057 0 36.374 16.317 36.374 36.374v120.784h-65.149v-77.009c0-8.284-6.716-15-15-15zm100.361 159.269h-107.905v-37.26h107.905z"/></svg>