<svg id="Layer_1" fill="white" height="512" viewBox="0 0 128 128" width="512" xmlns="http://www.w3.org/2000/svg" data-name="Layer 1"><path d="m98 17.426c-6.711 0-13.8 1.253-17 3.937-3.2-2.685-10.289-3.937-17-3.937s-13.8 1.253-17 3.937c-3.2-2.685-10.289-3.937-17-3.937-9.03 0-18.75 2.266-18.75 7.24v84.158a1.75 1.75 0 0 0 3.5 0c0-.871 4.754-3.74 15.25-3.74s15.25 2.869 15.25 3.74a1.75 1.75 0 1 0 3.5 0c0-.871 4.754-3.74 15.25-3.74s15.25 2.869 15.25 3.74a1.75 1.75 0 1 0 3.5 0c0-.871 4.754-3.74 15.25-3.74s15.25 2.869 15.25 3.74a1.75 1.75 0 1 0 3.5 0v-84.158c0-4.974-9.72-7.24-18.75-7.24zm0 3.5c10.5 0 15.25 2.869 15.25 3.74v37.814c-3.637-1.9-9.579-2.79-15.25-2.79s-11.613.894-15.25 2.79v-37.814c0-.871 4.75-3.74 15.25-3.74zm-34 0c10.5 0 15.25 2.869 15.25 3.74v37.445c-3.637-1.9-9.579-2.791-15.25-2.791s-11.613.894-15.25 2.791v-37.445c0-.871 4.75-3.74 15.25-3.74zm-34 0c10.5 0 15.25 2.869 15.25 3.74v37.445c-3.637-1.9-9.579-2.791-15.25-2.791s-11.613.894-15.25 2.791v-37.445c0-.871 4.75-3.74 15.25-3.74zm0 80.658c-5.671 0-11.613.894-15.25 2.79v-37.814c0-.871 4.754-3.74 15.25-3.74s15.25 2.869 15.25 3.74v37.816c-3.637-1.898-9.579-2.792-15.25-2.792zm34 0c-5.671 0-11.613.894-15.25 2.79v-37.814c0-.871 4.754-3.74 15.25-3.74s15.25 2.869 15.25 3.74v37.814c-3.637-1.896-9.579-2.79-15.25-2.79zm49.25 2.79c-3.637-1.9-9.579-2.79-15.25-2.79s-11.613.894-15.25 2.791v-37.445c0-.871 4.754-3.74 15.25-3.74s15.25 2.869 15.25 3.74z"/><path d="m21 47.994a1.75 1.75 0 0 0 1.75-1.75v-19.5a1.75 1.75 0 0 0 -3.5 0v19.5a1.75 1.75 0 0 0 1.75 1.75z"/><path d="m21 55.828a1.75 1.75 0 0 0 1.75-1.75v-2.167a1.75 1.75 0 0 0 -3.5 0v2.167a1.75 1.75 0 0 0 1.75 1.75z"/><path d="m55 68.578a1.75 1.75 0 0 0 -1.75 1.75v24.25a1.75 1.75 0 0 0 3.5 0v-24.25a1.75 1.75 0 0 0 -1.75-1.75z"/></svg>